<svg width="24" height="24" viewBox="0 0 24 24" fill="none" xmlns="http://www.w3.org/2000/svg">
<path d="M12 24C18.6274 24 24 18.6274 24 12C24 5.37258 18.6274 0 12 0C5.37258 0 0 5.37258 0 12C0 18.6274 5.37258 24 12 24Z" fill="#0D1E30"/>
<g filter="url(#filter0_d_992_18242)">
<path d="M11.7934 4.54493C12.1527 4.35968 12.5914 4.78793 12.4009 5.14118C12.2892 5.42918 11.8684 5.50568 11.6539 5.28593C11.4267 5.07593 11.5009 4.65893 11.7934 4.54418V4.54493ZM7.92717 4.95443C8.14542 4.86593 8.42217 5.06243 8.39967 5.29718C8.42217 5.55068 8.10717 5.73818 7.88442 5.61743C7.58967 5.50493 7.62342 5.03393 7.92717 4.95443ZM15.8457 5.62418C15.5044 5.58368 15.4504 5.05568 15.7782 4.94918C16.0332 4.82768 16.2672 5.05643 16.3047 5.29418C16.2507 5.49668 16.0782 5.68268 15.8457 5.62418ZM8.80692 6.57293C9.17217 6.34568 9.69267 6.68393 9.63642 7.10168C9.61767 7.52243 9.04917 7.76693 8.72817 7.48193C8.41767 7.25843 8.46492 6.74543 8.80692 6.57293ZM14.3794 6.81443C14.5422 6.40193 15.2022 6.38843 15.3874 6.79043C15.5712 7.10318 15.3454 7.49093 15.0192 7.59743C14.5864 7.67693 14.1762 7.21643 14.3794 6.81443ZM11.3277 7.57418C11.3239 7.21868 11.6524 6.95468 11.9952 6.92993C12.2232 6.97493 12.4707 7.07018 12.5682 7.29593C12.7504 7.60793 12.5884 8.03618 12.2607 8.17943C12.1107 8.26193 11.9322 8.23118 11.7687 8.22143C11.5189 8.10143 11.3082 7.86368 11.3277 7.57418ZM5.57817 8.09168C5.91192 7.88918 6.36192 8.25668 6.23517 8.61368C6.16617 8.92193 5.74467 9.04718 5.50392 8.85068C5.24667 8.66618 5.28717 8.22293 5.57892 8.09093L5.57817 8.09168ZM17.9247 8.09018C18.2074 7.87418 18.6747 8.12243 18.6402 8.47343C18.6597 8.79368 18.2554 9.03593 17.9749 8.87093C17.6659 8.73368 17.6337 8.26568 17.9247 8.09093V8.09018ZM12.9447 8.72843C13.4112 8.56343 13.9662 8.76068 14.2317 9.17093C14.5827 9.67118 14.3967 10.4332 13.8514 10.7204C13.2874 11.0602 12.4632 10.7729 12.2539 10.1519C12.0177 9.59693 12.3627 8.90243 12.9439 8.72843H12.9447ZM10.2049 8.78318C10.7224 8.54318 11.4192 8.74418 11.6689 9.26468C11.9629 9.77168 11.7357 10.4774 11.2099 10.7392C10.6834 11.0339 9.94017 10.8104 9.68592 10.2667C9.40017 9.74018 9.65367 9.02543 10.2049 8.78318ZM7.46217 9.70493C7.50192 9.37718 7.81617 9.16343 8.13342 9.14093C8.29887 9.1584 8.4535 9.23149 8.57202 9.34825C8.69055 9.465 8.76596 9.61851 8.78592 9.78368C8.76342 10.1212 8.49867 10.4497 8.13567 10.4482C7.73592 10.4819 7.38567 10.0904 7.46217 9.70493ZM15.5637 9.21293C15.9739 8.97818 16.5432 9.31943 16.5252 9.78293C16.5529 10.2742 15.9229 10.6199 15.5149 10.3319C15.0904 10.0919 15.1234 9.41693 15.5637 9.21293ZM9.09117 10.9432C9.56967 10.8134 10.1187 11.0354 10.3534 11.4689C10.6107 11.9054 10.5057 12.5114 10.1059 12.8324C9.59217 13.3019 8.64642 13.1129 8.37342 12.4724C8.05917 11.8852 8.44092 11.0977 9.09042 10.9424L9.09117 10.9432ZM14.2864 10.9409C14.7522 10.8097 15.2997 10.9859 15.5502 11.4037C15.8817 11.8814 15.7234 12.5947 15.2307 12.9022C14.7132 13.2599 13.9137 13.0724 13.6287 12.5129C13.2837 11.9347 13.6309 11.1172 14.2864 10.9409ZM6.00642 11.4854C6.42042 11.3317 6.87942 11.7809 6.71142 12.1852C6.60942 12.5527 6.08217 12.6892 5.80992 12.4177C5.49117 12.1627 5.60892 11.5964 6.00642 11.4854ZM17.2332 12.0719C17.2254 11.9068 17.2831 11.7453 17.3938 11.6226C17.5045 11.4998 17.6592 11.4257 17.8242 11.4164C18.1077 11.4614 18.3837 11.6864 18.3612 11.9902C18.3874 12.3914 17.8962 12.6637 17.5482 12.4754C17.3854 12.3937 17.3022 12.2294 17.2332 12.0719ZM3.97017 11.6849C4.21917 11.5777 4.52742 11.7899 4.47042 12.0622C4.45692 12.3704 3.99417 12.4897 3.82467 12.2317C3.67467 12.0524 3.76467 11.7772 3.97017 11.6842V11.6849ZM19.6819 11.6782C19.8574 11.5559 20.1394 11.6437 20.2084 11.8454C20.3262 12.0659 20.1102 12.3674 19.8582 12.3307C19.5042 12.3622 19.3902 11.8319 19.6819 11.6782ZM10.4442 13.1579C11.0997 12.9907 11.8047 13.5284 11.8092 14.1929C11.8512 14.8642 11.1567 15.4589 10.4862 15.3044C9.96717 15.2219 9.55992 14.7299 9.57717 14.2147C9.57567 13.7212 9.95367 13.2622 10.4442 13.1579ZM13.0407 13.1572C13.7059 12.9742 14.4319 13.5217 14.4214 14.2012C14.4567 14.8597 13.7839 15.4349 13.1269 15.3037C12.5082 15.2257 12.0522 14.5574 12.2247 13.9664C12.3117 13.5734 12.6462 13.2539 13.0407 13.1564V13.1572ZM8.03367 13.5659C8.49417 13.4887 8.92617 13.9934 8.73942 14.4239C8.60292 14.8829 7.92492 15.0067 7.62492 14.6324C7.27392 14.2724 7.53642 13.6154 8.03367 13.5659ZM15.6492 13.5862C16.0602 13.4167 16.5642 13.7662 16.5327 14.2049C16.5492 14.6872 15.9267 15.0202 15.5254 14.7382C15.0702 14.4854 15.1534 13.7407 15.6492 13.5862ZM17.7777 15.6862C17.6172 15.3914 17.9089 15.0007 18.2427 15.0554C18.4077 15.0524 18.5239 15.1807 18.6297 15.2887C18.6514 15.4634 18.6882 15.6719 18.5404 15.8062C18.3402 16.0559 17.8864 15.9847 17.7777 15.6862ZM5.57667 15.1372C5.88792 14.9339 6.33567 15.2377 6.26517 15.5947C6.22767 15.9119 5.82267 16.0927 5.55642 15.9127C5.26992 15.7499 5.28042 15.2857 5.57667 15.1372ZM11.7214 15.7994C12.1287 15.6232 12.6477 15.9719 12.6087 16.4129C12.6387 16.9004 11.9974 17.2379 11.5992 16.9454C11.1567 16.6942 11.2309 15.9547 11.7214 15.7994ZM8.87592 16.4527C9.22242 16.2734 9.68742 16.5832 9.65592 16.9657C9.66642 17.2792 9.35592 17.5462 9.04092 17.4997C8.78067 17.4944 8.61117 17.2642 8.52717 17.0459C8.53167 16.8082 8.63142 16.5434 8.87592 16.4534V16.4527ZM14.6404 16.4587C14.9974 16.2412 15.5044 16.5532 15.4707 16.9612C15.4797 17.3887 14.9067 17.6617 14.5744 17.3812C14.2534 17.1614 14.2924 16.6334 14.6404 16.4587ZM15.6432 18.8962C15.4842 18.6607 15.6709 18.3764 15.9282 18.3224C16.1359 18.3637 16.3557 18.5174 16.3114 18.7529C16.2814 19.0732 15.8059 19.1707 15.6432 18.8969V18.8962ZM7.68492 18.6914C7.74792 18.5039 7.90092 18.3187 8.12517 18.3674C8.45142 18.3899 8.54817 18.8744 8.26242 19.0237C8.00592 19.1939 7.70742 18.9607 7.68492 18.6914ZM11.5249 18.9067C11.5872 18.6292 11.9509 18.4949 12.1909 18.6419C12.3499 18.7094 12.3964 18.8834 12.4369 19.0319C12.4155 19.1091 12.3955 19.1866 12.3769 19.2644C12.2787 19.3784 12.1519 19.4932 11.9884 19.4894C11.6847 19.5247 11.4102 19.1864 11.5242 18.9067H11.5249Z" fill="black"/>
</g>
<path d="M11.7934 4.54493C12.1527 4.35968 12.5914 4.78793 12.4009 5.14118C12.2892 5.42918 11.8684 5.50568 11.6539 5.28593C11.4267 5.07593 11.5009 4.65893 11.7934 4.54418V4.54493ZM7.92717 4.95443C8.14542 4.86593 8.42217 5.06243 8.39967 5.29718C8.42217 5.55068 8.10717 5.73818 7.88442 5.61743C7.58967 5.50493 7.62342 5.03393 7.92717 4.95443ZM15.8457 5.62418C15.5044 5.58368 15.4504 5.05568 15.7782 4.94918C16.0332 4.82768 16.2672 5.05643 16.3047 5.29418C16.2507 5.49668 16.0782 5.68268 15.8457 5.62418ZM8.80692 6.57293C9.17217 6.34568 9.69267 6.68393 9.63642 7.10168C9.61767 7.52243 9.04917 7.76693 8.72817 7.48193C8.41767 7.25843 8.46492 6.74543 8.80692 6.57293ZM14.3794 6.81443C14.5422 6.40193 15.2022 6.38843 15.3874 6.79043C15.5712 7.10318 15.3454 7.49093 15.0192 7.59743C14.5864 7.67693 14.1762 7.21643 14.3794 6.81443ZM11.3277 7.57418C11.3239 7.21868 11.6524 6.95468 11.9952 6.92993C12.2232 6.97493 12.4707 7.07018 12.5682 7.29593C12.7504 7.60793 12.5884 8.03618 12.2607 8.17943C12.1107 8.26193 11.9322 8.23118 11.7687 8.22143C11.5189 8.10143 11.3082 7.86368 11.3277 7.57418ZM5.57817 8.09168C5.91192 7.88918 6.36192 8.25668 6.23517 8.61368C6.16617 8.92193 5.74467 9.04718 5.50392 8.85068C5.24667 8.66618 5.28717 8.22293 5.57892 8.09093L5.57817 8.09168ZM17.9247 8.09018C18.2074 7.87418 18.6747 8.12243 18.6402 8.47343C18.6597 8.79368 18.2554 9.03593 17.9749 8.87093C17.6659 8.73368 17.6337 8.26568 17.9247 8.09093V8.09018ZM12.9447 8.72843C13.4112 8.56343 13.9662 8.76068 14.2317 9.17093C14.5827 9.67118 14.3967 10.4332 13.8514 10.7204C13.2874 11.0602 12.4632 10.7729 12.2539 10.1519C12.0177 9.59693 12.3627 8.90243 12.9439 8.72843H12.9447ZM10.2049 8.78318C10.7224 8.54318 11.4192 8.74418 11.6689 9.26468C11.9629 9.77168 11.7357 10.4774 11.2099 10.7392C10.6834 11.0339 9.94017 10.8104 9.68592 10.2667C9.40017 9.74018 9.65367 9.02543 10.2049 8.78318ZM7.46217 9.70493C7.50192 9.37718 7.81617 9.16343 8.13342 9.14093C8.29887 9.1584 8.4535 9.23149 8.57202 9.34825C8.69055 9.465 8.76596 9.61851 8.78592 9.78368C8.76342 10.1212 8.49867 10.4497 8.13567 10.4482C7.73592 10.4819 7.38567 10.0904 7.46217 9.70493ZM15.5637 9.21293C15.9739 8.97818 16.5432 9.31943 16.5252 9.78293C16.5529 10.2742 15.9229 10.6199 15.5149 10.3319C15.0904 10.0919 15.1234 9.41693 15.5637 9.21293ZM9.09117 10.9432C9.56967 10.8134 10.1187 11.0354 10.3534 11.4689C10.6107 11.9054 10.5057 12.5114 10.1059 12.8324C9.59217 13.3019 8.64642 13.1129 8.37342 12.4724C8.05917 11.8852 8.44092 11.0977 9.09042 10.9424L9.09117 10.9432ZM14.2864 10.9409C14.7522 10.8097 15.2997 10.9859 15.5502 11.4037C15.8817 11.8814 15.7234 12.5947 15.2307 12.9022C14.7132 13.2599 13.9137 13.0724 13.6287 12.5129C13.2837 11.9347 13.6309 11.1172 14.2864 10.9409ZM6.00642 11.4854C6.42042 11.3317 6.87942 11.7809 6.71142 12.1852C6.60942 12.5527 6.08217 12.6892 5.80992 12.4177C5.49117 12.1627 5.60892 11.5964 6.00642 11.4854ZM17.2332 12.0719C17.2254 11.9068 17.2831 11.7453 17.3938 11.6226C17.5045 11.4998 17.6592 11.4257 17.8242 11.4164C18.1077 11.4614 18.3837 11.6864 18.3612 11.9902C18.3874 12.3914 17.8962 12.6637 17.5482 12.4754C17.3854 12.3937 17.3022 12.2294 17.2332 12.0719ZM3.97017 11.6849C4.21917 11.5777 4.52742 11.7899 4.47042 12.0622C4.45692 12.3704 3.99417 12.4897 3.82467 12.2317C3.67467 12.0524 3.76467 11.7772 3.97017 11.6842V11.6849ZM19.6819 11.6782C19.8574 11.5559 20.1394 11.6437 20.2084 11.8454C20.3262 12.0659 20.1102 12.3674 19.8582 12.3307C19.5042 12.3622 19.3902 11.8319 19.6819 11.6782ZM10.4442 13.1579C11.0997 12.9907 11.8047 13.5284 11.8092 14.1929C11.8512 14.8642 11.1567 15.4589 10.4862 15.3044C9.96717 15.2219 9.55992 14.7299 9.57717 14.2147C9.57567 13.7212 9.95367 13.2622 10.4442 13.1579ZM13.0407 13.1572C13.7059 12.9742 14.4319 13.5217 14.4214 14.2012C14.4567 14.8597 13.7839 15.4349 13.1269 15.3037C12.5082 15.2257 12.0522 14.5574 12.2247 13.9664C12.3117 13.5734 12.6462 13.2539 13.0407 13.1564V13.1572ZM8.03367 13.5659C8.49417 13.4887 8.92617 13.9934 8.73942 14.4239C8.60292 14.8829 7.92492 15.0067 7.62492 14.6324C7.27392 14.2724 7.53642 13.6154 8.03367 13.5659ZM15.6492 13.5862C16.0602 13.4167 16.5642 13.7662 16.5327 14.2049C16.5492 14.6872 15.9267 15.0202 15.5254 14.7382C15.0702 14.4854 15.1534 13.7407 15.6492 13.5862ZM17.7777 15.6862C17.6172 15.3914 17.9089 15.0007 18.2427 15.0554C18.4077 15.0524 18.5239 15.1807 18.6297 15.2887C18.6514 15.4634 18.6882 15.6719 18.5404 15.8062C18.3402 16.0559 17.8864 15.9847 17.7777 15.6862ZM5.57667 15.1372C5.88792 14.9339 6.33567 15.2377 6.26517 15.5947C6.22767 15.9119 5.82267 16.0927 5.55642 15.9127C5.26992 15.7499 5.28042 15.2857 5.57667 15.1372ZM11.7214 15.7994C12.1287 15.6232 12.6477 15.9719 12.6087 16.4129C12.6387 16.9004 11.9974 17.2379 11.5992 16.9454C11.1567 16.6942 11.2309 15.9547 11.7214 15.7994ZM8.87592 16.4527C9.22242 16.2734 9.68742 16.5832 9.65592 16.9657C9.66642 17.2792 9.35592 17.5462 9.04092 17.4997C8.78067 17.4944 8.61117 17.2642 8.52717 17.0459C8.53167 16.8082 8.63142 16.5434 8.87592 16.4534V16.4527ZM14.6404 16.4587C14.9974 16.2412 15.5044 16.5532 15.4707 16.9612C15.4797 17.3887 14.9067 17.6617 14.5744 17.3812C14.2534 17.1614 14.2924 16.6334 14.6404 16.4587ZM15.6432 18.8962C15.4842 18.6607 15.6709 18.3764 15.9282 18.3224C16.1359 18.3637 16.3557 18.5174 16.3114 18.7529C16.2814 19.0732 15.8059 19.1707 15.6432 18.8969V18.8962ZM7.68492 18.6914C7.74792 18.5039 7.90092 18.3187 8.12517 18.3674C8.45142 18.3899 8.54817 18.8744 8.26242 19.0237C8.00592 19.1939 7.70742 18.9607 7.68492 18.6914ZM11.5249 18.9067C11.5872 18.6292 11.9509 18.4949 12.1909 18.6419C12.3499 18.7094 12.3964 18.8834 12.4369 19.0319C12.4155 19.1091 12.3955 19.1866 12.3769 19.2644C12.2787 19.3784 12.1519 19.4932 11.9884 19.4894C11.6847 19.5247 11.4102 19.1864 11.5242 18.9067H11.5249Z" fill="white"/>
<defs>
<filter id="filter0_d_992_18242" x="2.75" y="4.00024" width="18.4922" height="16.9917" filterUnits="userSpaceOnUse" color-interpolation-filters="sRGB">
<feFlood flood-opacity="0" result="BackgroundImageFix"/>
<feColorMatrix in="SourceAlpha" type="matrix" values="0 0 0 0 0 0 0 0 0 0 0 0 0 0 0 0 0 0 127 0" result="hardAlpha"/>
<feOffset dy="0.5"/>
<feGaussianBlur stdDeviation="0.5"/>
<feColorMatrix type="matrix" values="0 0 0 0 0 0 0 0 0 0 0 0 0 0 0 0 0 0 0.204257 0"/>
<feBlend mode="normal" in2="BackgroundImageFix" result="effect1_dropShadow_992_18242"/>
<feBlend mode="normal" in="SourceGraphic" in2="effect1_dropShadow_992_18242" result="shape"/>
</filter>
</defs>
</svg>
