<svg width="40" height="40" viewBox="0 0 40 40" fill="none" xmlns="http://www.w3.org/2000/svg">
<path d="M20 40C31.0457 40 40 31.0457 40 20C40 8.9543 31.0457 0 20 0C8.9543 0 0 8.9543 0 20C0 31.0457 8.9543 40 20 40Z" fill="#328332"/>
<path d="M19.9862 20.6912L11.585 19.97L19.985 15.2175V20.6912H19.9862ZM19.9862 26.2663V34.9412C17.065 30.3937 13.845 25.3888 11.25 21.3375C14.3125 23.0625 17.51 24.8662 19.9862 26.2675V26.2663ZM19.9862 13.6812L11.25 18.5563L19.9862 5V13.6812Z" fill="white"/>
<path d="M28.3876 19.97L19.9863 20.6912V15.2175L28.3863 19.97H28.3876ZM19.9863 26.2675C22.4613 24.8675 25.6576 23.0625 28.7213 21.3375C26.1263 25.39 22.9063 30.395 19.9863 34.94V26.2675ZM19.9863 13.6812V5L28.7213 18.5563L19.9863 13.6812Z" fill="white" fill-opacity="0.601"/>
<path opacity="0.2" fill-rule="evenodd" clip-rule="evenodd" d="M19.9863 20.6913L28.3863 19.9701L19.9863 24.6888V20.6913Z" fill="white"/>
<path opacity="0.603" fill-rule="evenodd" clip-rule="evenodd" d="M19.9852 20.6913L11.584 19.9701L19.9852 24.6888V20.6913Z" fill="white"/>
</svg>
