<svg width="40" height="40" viewBox="0 0 40 40" fill="none" xmlns="http://www.w3.org/2000/svg">
<g clip-path="url(#clip0_499_6302)">
<path d="M20 40C31.0457 40 40 31.0457 40 20C40 8.9543 31.0457 0 20 0C8.9543 0 0 8.9543 0 20C0 31.0457 8.9543 40 20 40Z" fill="#D59143"/>
<path d="M9.96681 20.5663C9.31931 21.0813 8.74181 21.9963 8.77056 23.395C8.79181 24.3625 9.31181 25.025 9.96681 25.475V27.2025C9.96681 28.2825 10.4918 29.2938 11.3768 29.9125L17.4431 34.0613V12.8625L9.96681 15.05V20.5663ZM11.5956 20.0563C12.8543 20.9775 12.8543 26.4513 12.8543 26.4513C12.8543 26.4513 11.4306 26.3138 10.2543 25.6563C11.2243 25.9825 12.0031 25.91 12.3418 25.9475L12.3643 25.9488H12.3693L12.3868 25.9513L12.4343 25.955L12.4506 25.9575H12.4668C12.4668 25.9575 12.6668 21.18 11.2206 20.3425C10.9856 20.2613 10.5706 20.3088 10.1131 20.455C10.6956 20.0625 11.3043 19.93 11.5956 20.0563ZM17.9668 28.6863H22.0456V34.0688H17.9681V28.6875L17.9668 28.6863ZM17.0418 12.4613L9.96681 14.4888V6.90004C9.96663 6.77397 10.0038 6.65067 10.0737 6.54574C10.1436 6.4408 10.243 6.35895 10.3594 6.31052C10.4758 6.26208 10.6039 6.24925 10.7276 6.27364C10.8513 6.29803 10.965 6.35855 11.0543 6.44754L17.4043 12.8225L17.0418 12.46V12.4613ZM17.9668 20.05H22.0456V28.1675H17.9681V20.05H17.9668ZM22.9581 12.4625L22.6956 12.725L28.9456 6.45004C29.0346 6.36077 29.1482 6.29993 29.2719 6.27521C29.3955 6.2505 29.5238 6.26302 29.6403 6.31119C29.7569 6.35936 29.8565 6.44102 29.9267 6.54584C29.9968 6.65066 30.0343 6.77392 30.0343 6.90004V14.4875L22.9593 12.4625H22.9581ZM17.9681 12.8638H22.0456V19.5263H17.9681V12.8638ZM30.0343 20.5663V15.05L22.5706 12.8675V34.0688L28.6243 29.9125C29.0596 29.6075 29.4151 29.2021 29.6605 28.7306C29.9059 28.259 30.0342 27.7353 30.0343 27.2038V25.475C30.6893 25.025 31.2093 24.3625 31.2306 23.395C31.2606 21.9963 30.6818 21.0813 30.0343 20.5663ZM27.5843 26.0338H27.6006L27.6156 26.0325L27.6368 26.03H27.6418L27.6856 26.0263H27.6881L27.7081 26.0238L27.8943 26.0025H27.9031C28.3106 25.95 28.8106 25.955 29.5781 25.715L29.7481 25.6588C28.5706 26.3163 27.1481 26.4538 27.1481 26.4538C27.1481 26.4538 27.1481 20.9813 28.4068 20.06C28.6981 19.9325 29.3068 20.065 29.8881 20.46C29.4306 20.3138 29.0168 20.2663 28.7806 20.3475C27.3343 21.1838 27.5831 26.035 27.5831 26.035L27.5843 26.0338Z" fill="white"/>
</g>
<defs>
<clipPath id="clip0_499_6302">
<rect width="40" height="40" fill="white"/>
</clipPath>
</defs>
</svg>
