<svg width="40" height="40" viewBox="0 0 40 40" fill="none" xmlns="http://www.w3.org/2000/svg">
<g clip-path="url(#clip0_499_6288)">
<path d="M20.0006 0C14.7158 0.0154161 9.6531 2.12759 5.92435 5.87269C2.1956 9.61779 0.105594 14.6896 0.113302 19.9745C0.121011 25.2593 2.2258 30.325 5.96546 34.0592C9.70512 37.7934 14.7739 39.8908 20.0587 39.8908C25.3436 39.8908 30.4124 37.7934 34.152 34.0592C37.8917 30.325 39.9965 25.2593 40.0042 19.9745C40.0119 14.6896 37.9219 9.61779 34.1931 5.87269C30.4644 2.12759 25.4017 0.0154161 20.1169 0L20.0006 0Z" fill="#345D9D"/>
<path d="M20.3646 20.4473L18.6027 26.3637H27.9773C28.0393 26.3606 28.1012 26.3705 28.1591 26.3928C28.217 26.4145 28.2701 26.4472 28.3155 26.4892C28.3605 26.5321 28.397 26.5834 28.4228 26.6401C28.45 26.6969 28.4649 26.7589 28.4664 26.8219V26.9764L27.65 29.7892C27.6151 29.9225 27.5347 30.0396 27.4228 30.1201C27.3119 30.2014 27.1765 30.2425 27.0391 30.2364H12.6937L15.0973 22.0546L12.4082 22.8692L13.0191 20.9946L15.7082 20.1782L19.0918 8.66915C19.1285 8.53655 19.2093 8.42045 19.3209 8.34006C19.4313 8.2587 19.5657 8.21647 19.7027 8.22006H23.3391C23.4012 8.21847 23.4629 8.22897 23.5209 8.25097C23.5795 8.27226 23.6333 8.30502 23.6791 8.34733C23.725 8.3896 23.7615 8.44101 23.7864 8.49824C23.8125 8.5554 23.8267 8.61725 23.8282 8.68006V8.83642L20.9755 18.5364L23.6664 17.7201L23.0918 19.6728L20.3646 20.4473Z" fill="white"/>
</g>
<defs>
<clipPath id="clip0_499_6288">
<rect width="40" height="40" fill="white"/>
</clipPath>
</defs>
</svg>
