<svg width="129" height="32" viewBox="0 0 129 32" fill="none" xmlns="http://www.w3.org/2000/svg">
<path d="M14.8727 6.25876V2.25876H1.97266V29.7411H14.8727V25.7411C12.2301 25.7411 9.69571 24.7148 7.82718 22.8879C5.9586 21.0611 4.90885 18.5835 4.90885 15.9999C4.90885 13.4164 5.9586 10.9387 7.82718 9.11189C9.69571 7.28506 12.2301 6.25876 14.8727 6.25876Z" fill="#2C3131"/>
<path d="M14.873 6.25875V25.7411C17.5156 25.7411 20.05 24.7148 21.9186 22.8879C23.7871 21.0611 24.8369 18.5835 24.8369 15.9999C24.8369 13.4164 23.7871 10.9387 21.9186 9.11188C20.05 7.28506 17.5156 6.25875 14.873 6.25875Z" fill="#2C3131"/>
<path d="M37.6195 24.1797C36.8622 24.1797 36.2268 24.0385 35.7134 23.7562C35.2128 23.4738 34.8341 23.0566 34.5774 22.5047C34.3335 21.9399 34.2116 21.2339 34.2116 20.3868V15.4578C34.2116 15.1241 34.295 14.8802 34.4619 14.7262C34.6288 14.5593 34.8662 14.4759 35.1743 14.4759C35.4823 14.4759 35.7198 14.5593 35.8867 14.7262C36.0664 14.8802 36.1562 15.1241 36.1562 15.4578V20.406C36.1562 21.1633 36.3103 21.7217 36.6183 22.0811C36.9264 22.4405 37.4141 22.6202 38.0816 22.6202C38.8132 22.6202 39.4037 22.3763 39.8529 21.8885C40.315 21.3879 40.5461 20.7333 40.5461 19.9247V15.4578C40.5461 15.1241 40.6295 14.8802 40.7964 14.7262C40.9632 14.5593 41.2071 14.4759 41.528 14.4759C41.8361 14.4759 42.0735 14.5593 42.2404 14.7262C42.4073 14.8802 42.4907 15.1241 42.4907 15.4578V23.1593C42.4907 23.8139 42.1762 24.1412 41.5473 24.1412C41.252 24.1412 41.021 24.0578 40.8541 23.8909C40.6873 23.7112 40.6038 23.4673 40.6038 23.1593V21.5227L40.8541 21.9463C40.5974 22.6651 40.1867 23.2171 39.6219 23.6021C39.0571 23.9872 38.3897 24.1797 37.6195 24.1797ZM46.2131 24.1412C45.8922 24.1412 45.6484 24.0578 45.4815 23.8909C45.3146 23.7112 45.2312 23.4673 45.2312 23.1593V15.4578C45.2312 15.1369 45.3146 14.893 45.4815 14.7262C45.6484 14.5593 45.8794 14.4759 46.1746 14.4759C46.4827 14.4759 46.7137 14.5593 46.8678 14.7262C47.0346 14.893 47.1181 15.1369 47.1181 15.4578V16.8633H46.9255C47.1309 16.0932 47.5096 15.5091 48.0615 15.1112C48.6134 14.7133 49.3194 14.4823 50.1794 14.4181C50.4105 14.4053 50.5902 14.463 50.7185 14.5914C50.8597 14.7197 50.9367 14.9187 50.9496 15.1882C50.9752 15.4578 50.9175 15.676 50.7763 15.8429C50.6351 15.9969 50.4169 16.0868 50.1216 16.1124L49.7558 16.1509C48.9215 16.2279 48.2861 16.4911 47.8497 16.9403C47.4133 17.3896 47.1951 18.0057 47.1951 18.7887V23.1593C47.1951 23.4673 47.1116 23.7112 46.9448 23.8909C46.7908 24.0578 46.5469 24.1412 46.2131 24.1412ZM58.7097 24.1797C57.3363 24.1797 56.1618 23.8973 55.1863 23.3326C54.2108 22.7678 53.4599 21.9656 52.9336 20.9259C52.4202 19.8733 52.1634 18.6347 52.1634 17.2099C52.1634 16.1445 52.3111 15.1882 52.6063 14.3411C52.9015 13.4811 53.3251 12.7494 53.877 12.1462C54.4418 11.53 55.1285 11.0615 55.9372 10.7406C56.7587 10.4197 57.6828 10.2593 58.7097 10.2593C59.467 10.2593 60.1923 10.362 60.8854 10.5674C61.5914 10.7727 62.2011 11.0679 62.7145 11.453C62.9327 11.5942 63.0739 11.7675 63.1381 11.9729C63.2151 12.1654 63.2279 12.3515 63.1766 12.5312C63.1381 12.7109 63.0546 12.865 62.9263 12.9933C62.7979 13.1088 62.6311 13.173 62.4257 13.1859C62.2331 13.1987 62.0214 13.1281 61.7903 12.9741C61.3667 12.6532 60.8982 12.4157 60.3848 12.2617C59.8714 12.1076 59.3323 12.0306 58.7675 12.0306C57.792 12.0306 56.9705 12.236 56.303 12.6468C55.6355 13.0447 55.1285 13.6287 54.782 14.3988C54.4354 15.169 54.2621 16.106 54.2621 17.2099C54.2621 18.3138 54.4354 19.2572 54.782 20.0402C55.1285 20.8103 55.6355 21.4008 56.303 21.8115C56.9705 22.2094 57.792 22.4084 58.7675 22.4084C59.3323 22.4084 59.8714 22.3314 60.3848 22.1773C60.9111 22.0105 61.4052 21.7666 61.8673 21.4457C62.0984 21.3045 62.3037 21.2403 62.4834 21.2532C62.676 21.266 62.8364 21.3302 62.9648 21.4457C63.0931 21.5612 63.1766 21.7088 63.2151 21.8885C63.2664 22.0554 63.26 22.2351 63.1958 22.4276C63.1445 22.6073 63.0225 22.7614 62.83 22.8897C62.3037 23.3133 61.6812 23.6342 60.9624 23.8524C60.2436 24.0706 59.4927 24.1797 58.7097 24.1797ZM66.407 24.1412C66.0861 24.1412 65.8422 24.0578 65.6754 23.8909C65.5085 23.7112 65.4251 23.4673 65.4251 23.1593V15.4578C65.4251 15.1369 65.5085 14.893 65.6754 14.7262C65.8422 14.5593 66.0733 14.4759 66.3685 14.4759C66.6765 14.4759 66.9076 14.5593 67.0616 14.7262C67.2285 14.893 67.3119 15.1369 67.3119 15.4578V16.8633H67.1194C67.3248 16.0932 67.7034 15.5091 68.2554 15.1112C68.8073 14.7133 69.5133 14.4823 70.3733 14.4181C70.6043 14.4053 70.784 14.463 70.9124 14.5914C71.0536 14.7197 71.1306 14.9187 71.1434 15.1882C71.1691 15.4578 71.1113 15.676 70.9701 15.8429C70.8289 15.9969 70.6107 16.0868 70.3155 16.1124L69.9497 16.1509C69.1154 16.2279 68.48 16.4911 68.0436 16.9403C67.6071 17.3896 67.3889 18.0057 67.3889 18.7887V23.1593C67.3889 23.4673 67.3055 23.7112 67.1386 23.8909C66.9846 24.0578 66.7407 24.1412 66.407 24.1412ZM75.4047 27.6069C75.1736 27.6069 74.9811 27.5427 74.827 27.4144C74.6858 27.2988 74.6024 27.1384 74.5767 26.933C74.5639 26.7405 74.6024 26.5287 74.6923 26.2976L76.0015 23.3518V24.1797L72.4011 15.8044C72.3112 15.5733 72.2791 15.3551 72.3048 15.1497C72.3305 14.9444 72.4267 14.7839 72.5936 14.6684C72.7605 14.54 72.9851 14.4759 73.2675 14.4759C73.5114 14.4759 73.7039 14.5336 73.8451 14.6491C73.9863 14.7647 74.1147 14.9636 74.2302 15.246L77.1375 22.4276H76.5984L79.5442 15.246C79.6597 14.9508 79.7945 14.7518 79.9485 14.6491C80.1026 14.5336 80.3144 14.4759 80.5839 14.4759C80.815 14.4759 80.9947 14.54 81.123 14.6684C81.2642 14.7839 81.3476 14.9444 81.3733 15.1497C81.4118 15.3423 81.3797 15.5541 81.277 15.7851L76.4636 26.856C76.3353 27.1512 76.1876 27.3502 76.0208 27.4529C75.8667 27.5556 75.6614 27.6069 75.4047 27.6069ZM84.1561 27.6069C83.848 27.6069 83.6106 27.5235 83.4437 27.3566C83.2768 27.1897 83.1934 26.9459 83.1934 26.625V15.4578C83.1934 15.1369 83.2768 14.893 83.4437 14.7262C83.6106 14.5593 83.8416 14.4759 84.1368 14.4759C84.4449 14.4759 84.6823 14.5593 84.8492 14.7262C85.0161 14.893 85.0995 15.1369 85.0995 15.4578V17.1329L84.8877 16.7285C85.0931 16.0354 85.4974 15.4835 86.1007 15.0727C86.704 14.6491 87.4164 14.4374 88.2379 14.4374C89.0722 14.4374 89.7974 14.6363 90.4135 15.0342C91.0425 15.4321 91.5238 15.9905 91.8576 16.7093C92.2041 17.4281 92.3774 18.2945 92.3774 19.3085C92.3774 20.2969 92.2041 21.1633 91.8576 21.9078C91.5238 22.6394 91.0489 23.2042 90.4328 23.6021C89.8167 23.9872 89.085 24.1797 88.2379 24.1797C87.4292 24.1797 86.7232 23.9744 86.12 23.5636C85.5167 23.1529 85.1123 22.6073 84.907 21.9271H85.138V26.625C85.138 26.9459 85.0482 27.1897 84.8685 27.3566C84.7016 27.5235 84.4641 27.6069 84.1561 27.6069ZM87.7565 22.6779C88.2956 22.6779 88.7641 22.5496 89.162 22.2929C89.56 22.0362 89.868 21.6575 90.0862 21.1569C90.3044 20.6563 90.4135 20.0402 90.4135 19.3085C90.4135 18.2047 90.1697 17.3703 89.6819 16.8056C89.207 16.2408 88.5652 15.9584 87.7565 15.9584C87.2303 15.9584 86.7617 16.0868 86.351 16.3435C85.9531 16.5873 85.645 16.9596 85.4268 17.4602C85.2086 17.9608 85.0995 18.5769 85.0995 19.3085C85.0995 20.3996 85.3434 21.2339 85.8312 21.8115C86.3189 22.3891 86.9607 22.6779 87.7565 22.6779ZM98.4796 24.1797C97.7095 24.1797 97.0613 24.045 96.535 23.7754C96.0088 23.5059 95.6173 23.1079 95.3605 22.5817C95.1038 22.0554 94.9755 21.4136 94.9755 20.6563V16.1124H93.8202C93.5635 16.1124 93.3646 16.0482 93.2234 15.9199C93.0822 15.7787 93.0116 15.5926 93.0116 15.3615C93.0116 15.1176 93.0822 14.9315 93.2234 14.8032C93.3646 14.6748 93.5635 14.6106 93.8202 14.6106H94.9755V12.6275C94.9755 12.3066 95.0589 12.0627 95.2258 11.8959C95.4055 11.729 95.6493 11.6456 95.9574 11.6456C96.2655 11.6456 96.5029 11.729 96.6698 11.8959C96.8367 12.0627 96.9201 12.3066 96.9201 12.6275V14.6106H99.1728C99.4295 14.6106 99.6285 14.6748 99.7696 14.8032C99.9108 14.9315 99.9814 15.1176 99.9814 15.3615C99.9814 15.5926 99.9108 15.7787 99.7696 15.9199C99.6285 16.0482 99.4295 16.1124 99.1728 16.1124H96.9201V20.5023C96.9201 21.1826 97.0613 21.696 97.3437 22.0426C97.6389 22.3891 98.1138 22.5624 98.7685 22.5624C98.9995 22.5624 99.1985 22.5432 99.3653 22.5047C99.545 22.4533 99.6926 22.4212 99.8082 22.4084C99.9493 22.4084 100.065 22.4597 100.155 22.5624C100.245 22.6523 100.289 22.832 100.289 23.1015C100.289 23.2941 100.251 23.4738 100.174 23.6406C100.11 23.8075 99.9879 23.9166 99.8082 23.9679C99.6541 24.0193 99.4423 24.0642 99.1728 24.1027C98.9161 24.1541 98.685 24.1797 98.4796 24.1797ZM105.495 24.1797C104.545 24.1797 103.723 23.9808 103.03 23.5829C102.35 23.185 101.817 22.6202 101.432 21.8885C101.047 21.1569 100.855 20.2969 100.855 19.3085C100.855 18.5512 100.964 17.8774 101.182 17.2869C101.4 16.6965 101.708 16.1894 102.106 15.7659C102.517 15.3294 103.005 15.0021 103.569 14.7839C104.147 14.5529 104.789 14.4374 105.495 14.4374C106.432 14.4374 107.24 14.6363 107.921 15.0342C108.614 15.4321 109.153 15.9969 109.538 16.7285C109.923 17.4473 110.116 18.3073 110.116 19.3085C110.116 20.053 110.007 20.7269 109.788 21.3302C109.57 21.9335 109.256 22.4469 108.845 22.8705C108.447 23.2941 107.959 23.6214 107.382 23.8524C106.817 24.0706 106.188 24.1797 105.495 24.1797ZM105.495 22.6779C106.021 22.6779 106.483 22.5496 106.881 22.2929C107.279 22.0362 107.587 21.6575 107.805 21.1569C108.036 20.6563 108.152 20.0402 108.152 19.3085C108.152 18.2047 107.908 17.3703 107.42 16.8056C106.932 16.2408 106.291 15.9584 105.495 15.9584C104.956 15.9584 104.487 16.0868 104.089 16.3435C103.691 16.5873 103.377 16.9596 103.146 17.4602C102.928 17.9608 102.819 18.5769 102.819 19.3085C102.819 20.3996 103.062 21.2339 103.55 21.8115C104.038 22.3891 104.686 22.6779 105.495 22.6779Z" fill="#2C3131"/>
<path d="M124.686 12.9318C125.856 12.9318 126.804 12.0047 126.804 10.8612C126.804 9.71768 125.856 8.79062 124.686 8.79062C123.517 8.79062 122.568 9.71768 122.568 10.8612C122.568 12.0047 123.517 12.9318 124.686 12.9318Z" fill="#2C3131"/>
</svg>
