<svg width="24" height="24" viewBox="0 0 24 24" fill="none" xmlns="http://www.w3.org/2000/svg">
<g clip-path="url(#clip0_499_6230)">
<path d="M12 24C18.6274 24 24 18.6274 24 12C24 5.37258 18.6274 0 12 0C5.37258 0 0 5.37258 0 12C0 18.6274 5.37258 24 12 24Z" fill="#172852"/>
<path d="M9.66659 5.36285C11.0718 4.83725 12.6534 4.83605 14.085 5.26805C15.9486 5.84645 17.5218 7.25285 18.3438 9.01805C18.5706 9.52085 18.7878 10.0453 18.8094 10.6045C17.7618 9.99725 16.6134 9.60365 15.4626 9.24485C13.6218 8.58125 11.6946 8.12045 9.95219 7.20845C9.54659 6.96605 9.02939 6.71765 8.91899 6.21245C8.87459 5.77565 9.33659 5.53205 9.66659 5.36285Z" fill="#FFD83D"/>
<path d="M5.42365 9.61093C5.83045 8.50693 6.49765 7.48213 7.40365 6.72253C7.63405 8.61733 8.44045 10.4485 9.77245 11.8261C11.3697 13.4857 13.6448 14.5045 15.9596 14.4661C16.8788 14.4949 17.7776 14.2825 18.674 14.1109C17.792 17.2981 14.2989 19.4137 11.0625 18.9049C9.10885 18.6553 7.30525 17.4985 6.21685 15.8653C4.98925 14.0605 4.67965 11.6641 5.42365 9.61093Z" fill="#FFD83D"/>
<path d="M15.4629 9.24487C16.6137 9.60367 17.7621 9.99727 18.8097 10.6045L18.8805 10.6417C18.9777 11.3725 19.0485 12.1177 18.9189 12.8497C18.3921 12.6265 17.9649 12.2341 17.5185 11.8873C16.6593 11.1721 15.7821 10.3537 15.4629 9.24487Z" fill="#FF6F03"/>
</g>
<defs>
<clipPath id="clip0_499_6230">
<rect width="24" height="24" fill="white"/>
</clipPath>
</defs>
</svg>
